<svg xmlns="http://www.w3.org/2000/svg" width="1400" height="700" viewBox="0 0 1400 700" role="img" aria-labelledby="title">
<title id="title">FF5+Momentum Decomposition</title>
<rect width="1400" height="700" fill="#FFFFFF"/>
<style>
.title{font:700 42px Arial,sans-serif;fill:#111827}
.sub{font:400 22px Arial,sans-serif;fill:#5B677A}
.head{font:700 21px Arial,sans-serif;fill:#FFFFFF}
.window{font:700 22px Arial,sans-serif;fill:#111827}
.num{font:700 28px Arial,sans-serif;fill:#111827}
</style>
<text x="700" y="70" text-anchor="middle" class="title">FF5+Momentum Decomposition of Q5−Q1 Spreads</text>
<text x="700" y="112" text-anchor="middle" class="sub">Components are percentage-point differences</text>
<rect x="90" y="150" width="330" height="58" rx="10" fill="#14284B"/><text x="255.0" y="187" text-anchor="middle" class="head">Window</text>
<rect x="460" y="150" width="140" height="58" rx="10" fill="#14284B"/><text x="530.0" y="187" text-anchor="middle" class="head">Raw</text>
<rect x="650" y="150" width="140" height="58" rx="10" fill="#14284B"/><text x="720.0" y="187" text-anchor="middle" class="head">Factor</text>
<rect x="830" y="150" width="140" height="58" rx="10" fill="#14284B"/><text x="900.0" y="187" text-anchor="middle" class="head">Alpha</text>
<rect x="1020" y="150" width="150" height="58" rx="10" fill="#14284B"/><text x="1095.0" y="187" text-anchor="middle" class="head">Residual</text>
<rect x="1200" y="150" width="150" height="58" rx="10" fill="#14284B"/><text x="1275.0" y="187" text-anchor="middle" class="head">Share</text>
<rect x="90" y="230" width="330" height="86" rx="12" fill="#F8FAFD" stroke="#D7E0EC" stroke-width="1.5"/><text x="114" y="284" class="window">Announcement [−1,+1]</text>
<rect x="460" y="230" width="140" height="86" rx="12" fill="#EFF6FF" stroke="#D7E0EC" stroke-width="1.5"/><text x="530.0" y="284" text-anchor="middle" class="num">6.42</text>
<rect x="650" y="230" width="140" height="86" rx="12" fill="#FFF7ED" stroke="#D7E0EC" stroke-width="1.5"/><text x="720.0" y="284" text-anchor="middle" class="num">0.10</text>
<rect x="830" y="230" width="140" height="86" rx="12" fill="#FFF7ED" stroke="#D7E0EC" stroke-width="1.5"/><text x="900.0" y="284" text-anchor="middle" class="num">0.07</text>
<rect x="1020" y="230" width="150" height="86" rx="12" fill="#ECFDF5" stroke="#D7E0EC" stroke-width="1.5"/><text x="1095.0" y="284" text-anchor="middle" class="num">6.25</text>
<rect x="1200" y="230" width="150" height="86" rx="12" fill="#F8FAFD" stroke="#D7E0EC" stroke-width="1.5"/><text x="1275.0" y="284" text-anchor="middle" class="num">97.4%</text>
<rect x="90" y="360" width="330" height="86" rx="12" fill="#F8FAFD" stroke="#D7E0EC" stroke-width="1.5"/><text x="114" y="414" class="window">PEAD [+2,+60]</text>
<rect x="460" y="360" width="140" height="86" rx="12" fill="#EFF6FF" stroke="#D7E0EC" stroke-width="1.5"/><text x="530.0" y="414" text-anchor="middle" class="num">1.99</text>
<rect x="650" y="360" width="140" height="86" rx="12" fill="#FFF7ED" stroke="#D7E0EC" stroke-width="1.5"/><text x="720.0" y="414" text-anchor="middle" class="num">0.63</text>
<rect x="830" y="360" width="140" height="86" rx="12" fill="#FFF7ED" stroke="#D7E0EC" stroke-width="1.5"/><text x="900.0" y="414" text-anchor="middle" class="num">1.44</text>
<rect x="1020" y="360" width="150" height="86" rx="12" fill="#FEF2F2" stroke="#D7E0EC" stroke-width="1.5"/><text x="1095.0" y="414" text-anchor="middle" class="num">−0.08</text>
<rect x="1200" y="360" width="150" height="86" rx="12" fill="#F8FAFD" stroke="#D7E0EC" stroke-width="1.5"/><text x="1275.0" y="414" text-anchor="middle" class="num">−3.9%</text>
<rect x="90" y="490" width="330" height="86" rx="12" fill="#F8FAFD" stroke="#D7E0EC" stroke-width="1.5"/><text x="114" y="544" class="window">PEAD [+2,+252]</text>
<rect x="460" y="490" width="140" height="86" rx="12" fill="#EFF6FF" stroke="#D7E0EC" stroke-width="1.5"/><text x="530.0" y="544" text-anchor="middle" class="num">6.96</text>
<rect x="650" y="490" width="140" height="86" rx="12" fill="#FFF7ED" stroke="#D7E0EC" stroke-width="1.5"/><text x="720.0" y="544" text-anchor="middle" class="num">1.27</text>
<rect x="830" y="490" width="140" height="86" rx="12" fill="#FFF7ED" stroke="#D7E0EC" stroke-width="1.5"/><text x="900.0" y="544" text-anchor="middle" class="num">6.24</text>
<rect x="1020" y="490" width="150" height="86" rx="12" fill="#FEF2F2" stroke="#D7E0EC" stroke-width="1.5"/><text x="1095.0" y="544" text-anchor="middle" class="num">−0.55</text>
<rect x="1200" y="490" width="150" height="86" rx="12" fill="#F8FAFD" stroke="#D7E0EC" stroke-width="1.5"/><text x="1275.0" y="544" text-anchor="middle" class="num">−7.9%</text>
</svg>